<svg xmlns="http://www.w3.org/2000/svg" xmlns:xlink="http://www.w3.org/1999/xlink" aria-hidden="true" role="img" class="iconify iconify--logos" width="35.93" height="32" preserveAspectRatio="xMidYMid meet" viewBox="0 0 256 228"><path fill="#00D8FF" d="M210.483 61.176c-6.61-17.503-25.928-30.356-47.736-33.34c-2.456-.331-4.874.331-6.61 2.134c-1.736 1.736-2.406 4.154-1.903 6.61c.165 1.072.331 2.144.496 3.216c3.05 14.093 1.903 28.653-3.216 42.01c-5.119 13.358-13.69 25.072-24.714 33.975c-11.024 8.902-24.218 14.752-38.246 16.932c-14.093 2.18-28.653 0-42.01-6.275c-13.358-6.275-25.072-15.68-33.975-27.54c-8.902-11.859-14.752-25.072-16.932-39.165c-2.18-14.093 0-28.653 6.275-42.01c6.275-13.358 15.68-25.072 27.54-33.975c3.716-2.799 4.154-8.285 1.004-11.434c-3.151-3.15-8.637-2.712-11.434 1.004c-13.358 17.668-24.549 37.893-32.393 59.577c-7.845 21.684-12.276 44.542-13.025 67.665c-.748 23.123 2.298 46.251 9.035 68.535c6.737 22.284 17.039 43.389 30.522 62.479c13.483 19.09 29.987 35.93 48.878 49.745c18.892 13.815 39.997 24.549 62.479 31.02c22.483 6.472 45.611 8.902 68.535 7.152c22.924-1.75 45.611-7.845 67.296-18.065c21.684-10.22 41.909-24.549 59.577-42.676c3.151-3.15 3.589-8.637.439-11.787c-3.15-3.15-8.637-2.712-11.787.439c-16.246 16.605-34.889 30.192-55.23 39.798c-20.342 9.605-42.214 15.145-64.423 16.378c-22.21 1.233-44.542-1.903-66.168-9.435c-21.626-7.532-42.214-18.892-60.707-33.542c-18.494-14.65-34.722-32.393-48.136-52.733c-13.414-20.34-23.774-42.898-30.718-66.832c-6.945-23.934-10.387-48.878-10.22-73.957c.166-25.079 3.872-50.023 11.024-74.069c7.152-24.046 17.668-46.77 31.353-67.576c13.685-20.806 30.356-39.498 49.58-55.399c19.224-15.9 40.833-28.819 64.258-38.246c23.425-9.427 48.488-15.214 73.882-17.039c25.394-1.824 50.954.331 75.84 6.41c24.882 6.078 48.878 16.378 71.093 30.522c4.154 2.652 5.611 8.285 2.96 12.439c-2.652 4.154-8.285 5.611-12.439 2.96c-21.21-13.358-44.249-22.924-68.202-28.653c-23.953-5.728-48.71-7.612-73.22-5.728c-24.51 1.884-48.71 7.612-71.93 16.932c-23.22 9.32-45.249 22.24-65.5 38.246c-20.25 16.006-38.574 35.098-54.348 56.595c-15.774 21.497-28.819 45.249-38.734 70.593c-9.915 25.344-16.606 52.012-19.945 79.404c-3.34 27.392-3.34 55.231 0 82.975c3.34 27.744 10.031 54.413 19.945 79.757c9.915 25.344 22.96 49.096 38.734 70.593c15.774 21.497 34.098 40.589 54.348 56.595c20.25 16.006 42.279 28.926 65.5 38.246c23.22 9.32 47.42 15.048 71.93 16.932c24.51 1.884 49.267 0 73.22-5.728c23.953-5.729 46.992-15.295 68.202-28.653c4.154-2.651 9.787-1.194 12.439 2.96c2.651 4.154 1.194 9.787-2.96 12.439c-22.215 14.144-46.211 24.444-71.093 30.522c-24.886 6.079-50.446 8.234-75.84 6.41c-25.394-1.825-50.457-7.612-73.882-17.039c-23.425-9.427-45.034-22.346-64.258-38.246c-19.224-15.9-35.895-34.592-49.58-55.399c-13.685-20.806-24.201-43.53-31.353-67.576c-7.152-24.046-10.858-48.99-11.024-74.069c-.167-25.079 3.275-50.023 10.22-73.957c6.944-23.934 17.304-46.492 30.718-66.832c13.414-20.34 29.642-38.083 48.136-52.733c18.493-14.65 39.081-26.01 60.707-33.542c21.626-7.532 43.958-10.668 66.168-9.435c22.209 1.233 44.081 6.773 64.423 16.378c20.341 9.606 38.984 23.193 55.23 39.798c3.15 3.151 8.637 3.589 11.787.439c3.15-3.15 2.712-8.637-.439-11.787Z"></path></svg>
